<svg version="1" xmlns="http://www.w3.org/2000/svg" width="933.333" height="933.333" viewBox="0 0 700.000000 700.000000"><path d="M315.9.4c-.2.2-6.9.7-14.9 1.1-8 .3-15.8.8-17.5 1-1.6.3-6.6.7-11 1-7.5.5-9.9.8-20 2-21.7 2.5-20.9 2.4-37.5 5-5.8.8-15.6 2.5-21.8 3.6-6.2 1.1-12.4 2.2-13.7 2.5-7.5 1.3-34.5 7.5-47.5 11-9.1 2.4-11.1 3.4-14.7 6.9-3.8 3.6-4.5 5-6.8 14-1.4 5.5-3.2 11.3-3.9 13-.7 1.6-1.9 4.5-2.6 6.3-1.6 4.1-8.4 13-12.5 16.4C82.4 91.8 65.2 99 50 101.5c-21.9 3.7-27.1 8.7-28.5 27-.4 4.9-.8 10.3-1.1 12-2.3 17.6-2.3 85.5.1 106.5.2 1.9.7 7.1 1 11.5.4 4.4.9 8.9 1.1 10 .2 1.1.6 4 .8 6.5 1.2 11.6 6.3 42.9 8.6 52.5 1.1 4.8 6.1 26.6 6.4 28 .2.5.8 3 1.5 5.5s1.4 5.2 1.6 6c.8 4.4 12 39.4 14.5 45.5.7 1.6 1.6 3.9 2 5 8.1 21.5 20.5 45.9 36.5 72.3 8.7 14.3 29.2 42.3 38.2 52.2 1.7 1.9 4 4.4 5 5.6 13.5 15.6 32.2 34.8 45.5 46.7 4.1 3.7 9 8.1 10.9 9.8 3.3 2.9 9.2 7.8 23.7 19.3 16.7 13.3 58.3 41.6 61.2 41.6.6 0 1 .3 1 .7 0 .5 1 1.3 2.3 1.9 1.2.6 7.4 4.1 13.8 7.7 6.4 3.6 16.5 9 22.5 12 25.3 12.6 30.7 14.1 39.9 10.5 8.5-3.3 34.3-16.3 47.5-23.9 6.9-3.9 13.4-7.7 14.5-8.3 2.3-1.3 3.8-2.3 20.7-13.3 20.1-13 51.5-36.6 66.3-49.8 25.1-22.3 41.3-38.9 63.9-65.5 20.5-24.2 44.8-62.5 59.3-93.5 9.4-20.1 12.5-28 19.8-50 10-29.9 20.9-76.2 24-101.5.3-2.5.7-5.2 1-6 .2-.8.7-4.3 1-7.7.3-3.4.8-7.2 1-8.5.3-1.3.8-6.6 1.1-11.8.3-5.2.8-9.8 1-10.2.8-1.3 1.8-34 1.8-55.3 0-18.5-.8-40-1.8-50.5-.2-1.9-.7-7.8-1.1-13-.8-10.9-2.3-15.1-6.7-19.7-3.6-3.7-5.9-4.6-18.9-7.3-21.5-4.3-35.9-10.2-45.4-18.7-6.3-5.5-14.3-19.2-16-27.3-4-18.3-7.3-23.5-17-26.6-11.2-3.5-51.9-12.9-64.5-14.8-4-.7-7.5-1.3-14.5-2.6-2.7-.5-7-1.2-9.5-1.5-2.5-.3-5.6-.8-7-1-1.4-.2-4.5-.7-7-1-2.5-.4-5.6-.8-7-1-1.4-.2-5.4-.7-9-1-3.6-.4-7.2-.8-8-1-.8-.2-5.1-.6-9.5-1s-9.3-.8-11-1c-1.6-.2-7.9-.7-14-1-6-.4-12.8-.9-15-1.1-5.1-.6-82.1-1.4-82.6-1zM374 58.5c10.2.3 20.8.7 23.6.9 7.9.5 20.5 1.6 24.4 2.1 1.9.3 7.6.9 12.5 1.5 11.5 1.3 27.6 3.7 34.6 5 3 .6 7 1.3 8.9 1.6 1.9.3 7.8 1.4 13 2.5s10.6 2.2 12 2.4c1.4.3 8.1 2 14.9 3.8l12.3 3.2 2.7 8c7.3 21.7 17.8 36 34.8 47.2 4.4 2.9 8.4 5.3 8.7 5.3.3 0 2.9 1.1 5.8 2.4 6.4 2.9 16.4 6.3 21 7.1 1.8.3 3.6.9 4 1.3 1.2 1.2 2.3 25.7 2.3 50.7 0 25.6-.9 45.1-3 65.5-.5 5.2-.8 7.3-2 16.5-.2 2.2-.7 6-1 8.5-.3 2.5-1.2 8.3-2.1 13-.8 4.7-1.7 10-2 11.9-1.1 7.9-9.1 41.9-11.8 50.5-.8 2.2-2.6 8.6-4.1 14.1-1.6 5.5-3.4 11.3-4.1 13-.7 1.6-3.1 7.9-5.4 14-6.8 17.9-20.8 45.8-31.4 62.5-6.4 10-18.2 27-23.3 33.5-4.5 5.7-8.8 11.1-9.3 11.5-.3.3-2.8 3.2-5.5 6.5-8.1 9.7-25.4 27.7-38 39.5-21.6 20.2-59.2 48.5-82.3 61.8-3.5 2-7.8 4.5-9.5 5.6-1.8 1-7 3.9-11.7 6.4-4.7 2.4-9.4 5.1-10.4 5.8-1.7 1.2-3.2.7-12.5-4.3-20.7-10.9-48.4-28.4-62.6-39.2-3.3-2.5-6.4-4.9-7-5.3-3.6-2.6-26.5-21.5-31.2-25.8-23.6-21.5-44.9-44.6-60.9-66-8.1-10.9-16.4-22.6-18-25.5-.6-1.1-3.6-6.1-6.6-11-15.6-25.8-28.8-55.6-38-86-3.6-11.9-10.1-36.5-11.2-42.5-.2-1.4-1.4-7.2-2.5-13s-2.3-11.9-2.6-13.5c-.3-1.7-.8-4.4-1-6-.2-1.7-.7-4.8-1-7-.4-2.2-.8-5.1-1-6.5-.2-1.4-.7-4.5-1-7-1.1-7.1-1.3-8.9-2-18-.4-4.7-.9-9.6-1.1-11-2.2-17-2.2-88.5 0-101.5.2-1.4 1.8-2.3 6.7-3.6 35.6-9.4 57.1-28.6 67.9-60.6 2.9-8.7 3-8.8 7-10 4.4-1.3 33.7-8.2 38-9 1.4-.2 8.4-1.5 15.5-2.8 7.2-1.3 15.5-2.6 18.5-3 3-.3 6.6-.8 8-1 5.8-.9 10.8-1.5 16-2 3-.3 7.1-.7 9-1 1.9-.2 7.6-.7 12.5-1.1 5-.3 9.8-.8 10.8-1 1-.2 11.3-.6 23-1 11.7-.3 21.3-.7 21.4-.8.1-.1 2.1-.1 4.5 0s12.6.5 22.8.9z"/></svg>