<svg xmlns="http://www.w3.org/2000/svg" viewBox="0 0 512 512"><title>adv</title><linearGradient id="a" gradientUnits="userSpaceOnUse" x1="368.488" y1="400.627" x2="409.395" y2="400.627" gradientTransform="matrix(1 0 0 -1 0 511.89)"><stop offset="0" stop-color="#297ed3"/><stop offset="1" stop-color="#78aedb"/></linearGradient><path fill="url(#a)" d="M370.5 103.8L391 131c3.4 4.5 9.8 5.4 14.3 2 4.5-3.4 5.4-9.8 2-14.3l-20.5-27.3c-3.4-4.5-9.8-5.4-14.3-2s-5.4 9.8-2 14.4z"/><linearGradient id="b" gradientUnits="userSpaceOnUse" y1="250.933" x2="512" y2="250.933" gradientTransform="matrix(1 0 0 -1 0 511.89)"><stop offset="0" stop-color="#297ed3"/><stop offset="1" stop-color="#78aedb"/></linearGradient><path fill="url(#b)" d="M505.5 173.4L417.2 63.5c-9.1-10.3-22-16.5-35.7-17H129.9c-13.7.6-26.6 6.7-35.7 17L6.4 173.4c-4.2 5.4-6.5 12-6.4 18.9-.1 7.5 2.6 14.8 7.6 20.5l229.4 254c9.2 10.5 25.2 11.6 35.7 2.3.8-.7 1.6-1.5 2.3-2.3l229.4-254.2c5-5.6 7.7-12.9 7.6-20.5 0-6.8-2.3-13.4-6.5-18.7zm-352.3 29.9l74 222.2L26.7 203.3h126.5zM290.1 66.9l46.4 115.9H174.7L213 66.9h77.1zm47.2 136.4L256 447.1l-81.3-243.8h162.6zm21.6 0h126.4L284.8 425.4l74.1-222.1zm33.5-133.4c3.4 1.6 6.5 3.9 9 6.8L487 182.8H358.3L311.9 66.9h69.5c3.8.3 7.6 1.3 11 3zm-282.1 6.8c5.1-5.6 12.1-9 19.6-9.7h61.4L153 182.8H25l85.3-106.1z"/></svg>