<svg xmlns="http://www.w3.org/2000/svg" xmlns:xlink="http://www.w3.org/1999/xlink" viewBox="0 0 512 512"><title>google play</title><defs><path id="a" d="M368.5 184.4l-107.1-61.9L54.8 3C43.3-3.4 31.9.6 31.9 14.5v485.9c0 10.3 8.2 14.9 18.1 9.1l211.4-122.1 107.1-61.9 102.9-59.8c12.1-7 10.9-16.6 0-22s-102.9-59.3-102.9-59.3z"/></defs><clipPath id="b"><use xlink:href="#a" overflow="visible"/></clipPath><g clip-path="url(#b)"><linearGradient id="c" gradientUnits="userSpaceOnUse" x1="164.582" y1="519.968" x2="164.582" y2="-6.077" gradientTransform="matrix(1 0 0 -1 0 511.89)"><stop offset="0" stop-color="#656565"/><stop offset=".32" stop-color="#848484"/><stop offset=".78" stop-color="#adadad"/><stop offset="1" stop-color="#bcbcbc"/></linearGradient><path fill="url(#c)" d="M31.9-8.1V518l265.4-263z"/><linearGradient id="d" gradientUnits="userSpaceOnUse" x1="31.913" y1="389.391" x2="368.516" y2="389.391" gradientTransform="matrix(1 0 0 -1 0 511.89)"><stop offset="0" stop-color="#9c9c9c"/><stop offset="1" stop-color="#dfdfdf"/></linearGradient><path fill="url(#d)" d="M368.5 184.4l-107.1-61.9L31.9-10v1.9L297.3 255z"/><linearGradient id="e" gradientUnits="userSpaceOnUse" x1="200.214" y1="256.871" x2="200.214" y2="-8.019" gradientTransform="matrix(1 0 0 -1 0 511.89)"><stop offset="0" stop-color="#686868"/><stop offset=".16" stop-color="#676767"/><stop offset=".73" stop-color="#636363"/><stop offset="1" stop-color="#616161"/></linearGradient><path fill="url(#e)" d="M31.9 518v1.9l229.5-132.4 107.1-61.8-71.2-70.7z"/><linearGradient id="f" gradientUnits="userSpaceOnUse" x1="394.063" y1="327.538" x2="394.063" y2="186.204" gradientTransform="matrix(1 0 0 -1 0 511.89)"><stop offset="0" stop-color="#a5a5a5"/><stop offset=".63" stop-color="#c1c1c1"/><stop offset="1" stop-color="#cfcfcf"/></linearGradient><path fill="url(#f)" d="M368.5 184.4L297.3 255l71.2 70.7L490.9 255z"/></g></svg>