<svg xmlns="http://www.w3.org/2000/svg" viewBox="0 0 512 512"><title>adv</title><linearGradient id="a" gradientUnits="userSpaceOnUse" x1=".001" y1="249.076" x2="512.001" y2="249.076" gradientTransform="matrix(1 0 0 -1 0 511.89)"><stop offset="0" stop-color="#297ed3"/><stop offset="1" stop-color="#78aedb"/></linearGradient><path fill="url(#a)" d="M512 181.2c.1-7.9-2.5-15.7-7.3-22L464 107.3c-6.7-8.4-16.8-13.3-27.6-13.2-6.3 0-12.5 1.7-17.9 5l-39.6 24.6c-5.6 3.1-11.9 4.6-18.2 4.4-4.8.1-9.6-.8-14-2.7l-38.3-18.6c-6.3-2.9-13.2-4.4-20.2-4.2-10.1-.2-20 2.7-28.5 8.2l-4.5 3.2-15.5-7.9c-7.9-3.6-16.6-5.3-25.3-5.1-8-.1-15.9 1.3-23.3 4.2l-26.4 11.2c-5.7 2.1-11.8 3.2-17.9 3-6.1.1-12.2-.9-17.9-3l-26.4-11.3c-4.8-2-9.9-3-15.1-2.9-5.9 0-11.7 1.2-17.2 3.4s-10.5 5.6-14.5 9.9L8 169.4c-11.5 12.9-10.4 32.6 2.4 44.1.2.2.4.3.6.5l44.9 38.3-21.3 22.2c-12.1 12.7-11.6 32.7 1 44.8l.1.1 4.3 4.1c4 3.7 8.8 6.3 14.1 7.6-7 12.5-4.6 28.2 5.8 38.1l4.1 4.1c9.3 8.9 23.1 11.3 34.9 6.2 1.4 5.9 4.5 11.2 8.8 15.4l4.3 4.1c10.8 10.2 27.3 11.6 39.7 3.4 1.6 5.2 4.4 9.9 8.3 13.6l4.3 4.1c12.8 12.1 32.9 11.6 45.1-1.1l18.8-19.6 25.5 23.6c12.9 11.9 33.1 11.2 45.1-1.6l4.1-4.4c3.4-3.7 5.8-8.1 7.2-12.9l9.9 9.1c13 11.9 33.1 11.1 45.1-1.7l4.1-4.4c4.5-4.8 7.3-10.9 8.1-17.5 11.3 3.1 23.4-.3 31.3-9l4.1-4.4c5.5-5.9 8.5-13.6 8.5-21.6 0-2.4-.3-4.8-.9-7.1 7.3-.9 14.1-4.3 19.1-9.7l4.1-4.4c11.9-12.9 11.2-33-1.7-44.9l-7.6-7 68.8-76c5.9-6.6 9.2-15.3 9-24.3zM47.7 306.8c-5.8-5.5-6-14.6-.5-20.4l43.6-45.5c5.6-5.7 14.8-5.8 20.5-.3l4.3 4.1c2.2 3.1 3.7 6.7 4.5 10.5 0 2.9-.9 5.8-2.6 8.1l-47.1 48.8c-2.5 1.7-5.4 2.7-8.4 2.7-3.7 0-7.3-1.4-10-4l-4.3-4zm38.6 57.9c-3.7 0-7.3-1.4-10-4l-4.3-4.1c-5.7-5.5-6-14.6-.5-20.4 0 0 58-60.6 58.5-61 5.6-5.4 14.5-5.4 20.1 0l4.3 4.1c5.8 5.5 6 14.6.5 20.4l-58.2 60.7c-2.8 2.7-6.5 4.3-10.4 4.3zm47.5 25.7c-3.7 0-7.3-1.4-10-4l-4.4-4.1c-5.4-5.2-5.9-13.7-1.1-19.5l40.7-42.2c5.6-5.2 14.2-5.2 19.7 0l4.4 4.1c5.7 5.5 5.9 14.7.4 20.4-.1.1-.2.2-.2.3l-38.9 40.7c-2.8 2.8-6.6 4.4-10.6 4.3zm62.8 16.7c-5.6 5.7-14.7 5.9-20.5.5l-4.2-4c-5.8-5.5-6-14.6-.5-20.4l24.6-25.6c5.5-5.7 14.7-6 20.5-.5l4.6 4.1c5.6 5.7 5.6 14.8 0 20.4l-24.5 25.5zm233.9-85l-4.1 4.4c-5.5 5.8-14.6 6.1-20.5.8l-68.5-63.7-11.6 12.7 73.3 68c5.8 5.4 6.2 14.5.8 20.4l-4.1 4.4c-5.5 5.8-14.6 6.1-20.5.8l-68.5-63.4-11.7 12.5 60.9 56.3c5.7 5.4 5.9 14.4.6 20.2l-4.1 4.4c-5.5 6-14.7 6.4-20.7.9l-.1-.1-60.7-56.2-11.6 12.7 30.4 28c5.3 5.5 5.3 14.2 0 19.8l-4.1 4.4c-5.5 5.8-14.6 6.1-20.5.8L239 386.1c6.6-12.5 4-27.9-6.3-37.5l-4.4-4.1c-5.9-5.6-13.8-8.7-22-8.7h-1.8c-.6 0 0-.3 0-.5 0-8.4-9.8-23.3-9.8-23.3l-4.3-4.1c-4.5-4-10-6.7-15.9-7.7 4.3-11.8 1.1-24.9-8-33.5l-4.3-4.1c-5.9-5.6-13.8-8.7-22-8.7h-2.7c-.2-8.3-3.7-16.2-9.8-22l-4.3-4.1c-12.8-12.1-32.9-11.6-45.1 1L68 239.6 22.3 201c-5.9-5-6.6-13.8-1.6-19.7.1-.1.2-.2.2-.3L69 127.1c2.2-2.4 5-4.2 8-5.4 3.4-1.4 7-2.1 10.6-2.1 2.8 0 5.6.5 8.2 1.5l26.3 11.3c7.9 3.1 16.3 4.6 24.8 4.4 8.5.2 16.9-1.3 24.8-4.4l26.4-11.2c5.2-2 10.7-3 16.3-2.9 6-.2 11.9 1 17.5 3.4l7 3.5-26.8 18.8c-14.1 9.8-17.6 29.1-7.8 43.2.2.3.5.7.7 1l3.5 4.8c6.6 8.6 16.9 13.7 27.8 13.6 6.1 0 12.2-1.6 17.5-4.7l16.1-9.7c4.1-2.2 8.7-3.4 13.4-3.3 5.6-.1 11 1.4 15.7 4.4l44.3 31.8c12.1 8.9 23.8 18.5 34.9 28.6l51.5 47.7c5.9 5.3 6.4 14.5 1.1 20.4l-.3.3zm59.6-128l-68.7 75.6-31.2-29.1c-11.7-10.6-23.9-20.6-36.7-29.9L309 178.8c-7.7-5.2-16.7-7.8-25.9-7.7-7.8-.1-15.5 1.9-22.3 5.8l-16.1 9.7c-2.5 1.5-5.4 2.3-8.4 2.3-5.4.1-10.5-2.3-13.8-6.4l-3.5-4.8c-4.6-6.1-3.4-14.7 2.7-19.3.1-.1.3-.2.4-.3l47.6-33.5c5.5-3.4 11.9-5.2 18.4-5 4.3-.1 8.7.7 12.6 2.5l38.7 18.8c6.8 3.1 14.1 4.6 21.6 4.5 9.6.2 19.1-2.3 27.4-7.1l39.6-24.6c2.6-1.6 5.7-2.4 8.7-2.4 5.3-.1 10.4 2.3 13.7 6.3l40.7 51.9c2.5 3.4 3.8 7.5 3.7 11.6.1 4.8-1.6 9.4-4.7 13z"/></svg>