<svg xmlns="http://www.w3.org/2000/svg" viewBox="0 0 512 512"><title>adv</title><linearGradient id="a" gradientUnits="userSpaceOnUse" x1="454.813" y1="280.535" x2="487.839" y2="280.535" gradientTransform="matrix(1 0 0 -1 0 511.89)"><stop offset="0" stop-color="#297ed3"/><stop offset="1" stop-color="#78aedb"/></linearGradient><linearGradient id="b" gradientUnits="userSpaceOnUse" x1="454.313" y1="280.535" x2="488.347" y2="280.535" gradientTransform="matrix(1 0 0 -1 0 511.89)"><stop offset="0" stop-color="#297ed3"/><stop offset="1" stop-color="#78aedb"/></linearGradient><path fill="url(#a)" stroke="url(#b)" stroke-miterlimit="10" d="M454.8 223.1h33.1v16.5h-33.1z"/><linearGradient id="c" gradientUnits="userSpaceOnUse" x1="25.112" y1="280.535" x2="58.139" y2="280.535" gradientTransform="matrix(1 0 0 -1 0 511.89)"><stop offset="0" stop-color="#297ed3"/><stop offset="1" stop-color="#78aedb"/></linearGradient><linearGradient id="d" gradientUnits="userSpaceOnUse" x1="24.612" y1="280.535" x2="58.646" y2="280.535" gradientTransform="matrix(1 0 0 -1 0 511.89)"><stop offset="0" stop-color="#297ed3"/><stop offset="1" stop-color="#78aedb"/></linearGradient><path fill="url(#c)" stroke="url(#d)" stroke-miterlimit="10" d="M25.1 223.1h33.1v16.5H25.1z"/><linearGradient id="e" gradientUnits="userSpaceOnUse" x1="390.947" y1="128.534" x2="426.021" y2="128.534" gradientTransform="matrix(1 0 0 -1 0 511.89)"><stop offset="0" stop-color="#297ed3"/><stop offset="1" stop-color="#78aedb"/></linearGradient><linearGradient id="f" gradientUnits="userSpaceOnUse" x1="390.24" y1="128.534" x2="426.728" y2="128.534" gradientTransform="matrix(1 0 0 -1 0 511.89)"><stop offset="0" stop-color="#297ed3"/><stop offset="1" stop-color="#78aedb"/></linearGradient><path fill="url(#e)" stroke="url(#f)" stroke-miterlimit="10" d="M390.9 377.5l11.7-11.7 23.4 23.4-11.7 11.7z"/><linearGradient id="g" gradientUnits="userSpaceOnUse" x1="87.023" y1="432.424" x2="122.034" y2="432.424" gradientTransform="matrix(1 0 0 -1 0 511.89)"><stop offset="0" stop-color="#297ed3"/><stop offset="1" stop-color="#78aedb"/></linearGradient><linearGradient id="h" gradientUnits="userSpaceOnUse" x1="86.316" y1="432.424" x2="122.74" y2="432.424" gradientTransform="matrix(1 0 0 -1 0 511.89)"><stop offset="0" stop-color="#297ed3"/><stop offset="1" stop-color="#78aedb"/></linearGradient><path fill="url(#g)" stroke="url(#h)" stroke-miterlimit="10" d="M122 85.3L98.7 61.9 87 73.6 110.4 97z"/><linearGradient id="i" gradientUnits="userSpaceOnUse" x1="248.19" y1="495.385" x2="264.762" y2="495.385" gradientTransform="matrix(1 0 0 -1 0 511.89)"><stop offset="0" stop-color="#297ed3"/><stop offset="1" stop-color="#78aedb"/></linearGradient><linearGradient id="j" gradientUnits="userSpaceOnUse" x1="247.69" y1="495.385" x2="265.249" y2="495.385" gradientTransform="matrix(1 0 0 -1 0 511.89)"><stop offset="0" stop-color="#297ed3"/><stop offset="1" stop-color="#78aedb"/></linearGradient><path fill="url(#i)" stroke="url(#j)" stroke-miterlimit="10" d="M248.2 0h16.5v33.1h-16.5z"/><linearGradient id="k" gradientUnits="userSpaceOnUse" x1="86.997" y1="128.658" x2="122.124" y2="128.658" gradientTransform="matrix(1 0 0 -1 .001 511.891)"><stop offset="0" stop-color="#297ed3"/><stop offset="1" stop-color="#78aedb"/></linearGradient><linearGradient id="l" gradientUnits="userSpaceOnUse" x1="86.29" y1="128.658" x2="122.775" y2="128.658" gradientTransform="matrix(1 0 0 -1 .001 511.891)"><stop offset="0" stop-color="#297ed3"/><stop offset="1" stop-color="#78aedb"/></linearGradient><path fill="url(#k)" stroke="url(#l)" stroke-miterlimit="10" d="M87 389.1l23.4-23.4 11.7 11.7-23.4 23.4z"/><linearGradient id="m" gradientUnits="userSpaceOnUse" x1="390.918" y1="432.424" x2="425.929" y2="432.424" gradientTransform="matrix(1 0 0 -1 0 511.89)"><stop offset="0" stop-color="#297ed3"/><stop offset="1" stop-color="#78aedb"/></linearGradient><linearGradient id="n" gradientUnits="userSpaceOnUse" x1="390.212" y1="432.424" x2="426.636" y2="432.424" gradientTransform="matrix(1 0 0 -1 0 511.89)"><stop offset="0" stop-color="#297ed3"/><stop offset="1" stop-color="#78aedb"/></linearGradient><path fill="url(#m)" stroke="url(#n)" stroke-miterlimit="10" d="M425.9 73.6l-11.6-11.7-23.4 23.4L402.5 97z"/><linearGradient id="o" gradientUnits="userSpaceOnUse" x1="82.986" y1="227.146" x2="430.063" y2="227.146" gradientTransform="matrix(1 0 0 -1 0 511.89)"><stop offset="0" stop-color="#297ed3"/><stop offset="1" stop-color="#78aedb"/></linearGradient><linearGradient id="p" gradientUnits="userSpaceOnUse" x1="82.486" y1="227.146" x2="430.563" y2="227.146" gradientTransform="matrix(1 0 0 -1 0 511.89)"><stop offset="0" stop-color="#297ed3"/><stop offset="1" stop-color="#78aedb"/></linearGradient><path fill="url(#o)" stroke="url(#p)" stroke-miterlimit="10" d="M247 57.8c-93 5.9-165 83.5-164 176.6.9 60.1 33.1 115.4 84.8 145.9 13.6 8.5 22 23.2 22.5 39.3-10.1 9-11 24.6-1.9 34.7 2.9 3.2 6.6 5.6 10.7 7 3.9 31.7 32.8 54.2 64.5 50.3 26.3-3.3 47-24 50.3-50.3 12.9-4.2 20-18 15.8-30.9-1.3-4.1-3.7-7.8-7-10.7.6-16.6 9.6-31.8 23.9-40.3 81.9-49.7 108-156.4 58.3-238.3C371.6 86.3 311 54.3 247 57.8zm9.5 437.6c-19.6 0-36.5-13.9-40.4-33.1h81c-3.8 19.4-20.8 33.4-40.6 33.5v-.4zm49.6-49.1h-99.2c-4.6-.4-7.9-4.4-7.6-9 .3-4 3.5-7.2 7.6-7.6h99.2c4.6-.4 8.6 3 9 7.6.4 4.6-3 8.6-7.6 9h-1.4zM240 413.2v-82.6h33v82.6h-33zm98.1-47.8c-17.2 10.3-28.8 27.9-31.5 47.8h-17.1v-82.6H306V314h-99.2v16.5h16.5v82.6h-16.9c-2.3-19.5-13.4-36.8-30.2-47-46.9-27.6-76-77.7-76.8-132.1-2.2-86.7 66.2-158.8 152.9-161s158.8 66.2 161 152.9c0 1.8.1 3.6 0 5.4.4 54.9-28.3 105.8-75.2 134.1z"/></svg>