<svg xmlns="http://www.w3.org/2000/svg" viewBox="0 0 512 512"><title>adv</title><linearGradient id="a" gradientUnits="userSpaceOnUse" x1="104.216" y1="255.89" x2="409.784" y2="255.89" gradientTransform="matrix(1 0 0 -1 0 511.89)"><stop offset="0" stop-color="#297ed3"/><stop offset="1" stop-color="#78aedb"/></linearGradient><path fill="url(#a)" d="M154.9 512H359c28 0 50.7-22.7 50.7-50.7V50.7C409.7 22.7 387 0 359 0H154.9c-28 0-50.7 22.7-50.7 50.7v410.5c0 28.1 22.7 50.8 50.7 50.8zM121.1 51.3c0-18.7 15.1-33.8 33.8-33.8H359c18.7 0 33.8 15.1 33.8 33.8v410.5c0 18.7-15.1 33.8-33.8 33.8H154.9c-18.7 0-33.8-15.1-33.8-33.8V51.3zm22.2 381.4h226.8c4.4.1 8.1-3.4 8.2-7.8V89.2c.1-4.4-3.4-8.1-7.8-8.2H143.3c-4.4-.1-8.1 3.4-8.2 7.8v335.7c.1 4.5 3.7 8.1 8.2 8.2zM152 97.4h210.5v318.4H152V97.4zm73.5-44.3c-.1-4.4 3.4-8.1 7.8-8.2H278c4.5 0 8.2 3.7 8.2 8.2 0 4.5-3.7 8.2-8.2 8.2h-44.3c-4.4.1-8-3.3-8.2-7.7v-.5zm30.9 384.8c-14.8 0-26.8 12-26.8 26.8s12 26.8 26.8 26.8 26.8-12 26.8-26.8c-.1-14.7-12-26.6-26.8-26.8zm0 36.8c-5.4 0-9.9-4.4-9.9-9.8v-.1c.2-5.4 4.5-9.8 9.9-9.9 5.4 0 9.9 4.4 9.9 9.8v.1c-.1 5.4-4.5 9.7-9.9 9.9zm9.3-223.9V179c0-4.5-3.6-8.2-8.2-8.2-4.5 0-8.2 3.6-8.2 8.2v71.7c-14.2 4.6-21.9 19.9-17.3 34.1 2.7 8.2 9.1 14.6 17.3 17.3v30.3c0 4.5 3.6 8.2 8.2 8.2 4.5 0 8.2-3.6 8.2-8.2v-30.3c14.9 0 27-10.7 27-25.7 0-14.9-12-27-27-25.6zm-8.7 35.5c-5.8 0-10.5-4.7-10.5-10.5s4.7-10.5 10.5-10.5 10.5 4.7 10.5 10.5-4.6 10.5-10.4 10.5h-.1zm-47.2-74v-33.8c0-4.5-3.6-8.2-8.2-8.2s-8.2 3.6-8.2 8.2v33.8c-14.2 4.6-21.9 19.9-17.3 34.1 2.7 8.2 9.1 14.6 17.3 17.3v67.1c0 4.5 3.6 8.2 8.2 8.2s8.2-3.6 8.2-8.2v-67.1c14.2-4.6 21.9-19.9 17.3-34.1-2.8-8.3-9.2-14.7-17.3-17.3zm-8.8 36.1c-5.8 0-10.5-4.6-10.5-10.4v-.1c.1-5.5 4.4-10.1 9.9-10.5 5.5 0 10 4.5 9.9 10v.5c.9 4.8-2.3 9.5-7.2 10.4-.6.1-1.4.2-2.1.1zm120.1-36.1v-31.5c0-4.5-3.6-8.2-8.2-8.2s-8.2 3.6-8.2 8.2v31.5c-14.2 4.6-21.9 19.9-17.3 34.1 2.7 8.2 9.1 14.6 17.3 17.3v71.1c0 4.5 3.6 8.2 8.2 8.2s8.2-3.6 8.2-8.2v-71.1c11.1-3.7 18.6-14 18.7-25.7.2-11.8-7.4-22.3-18.7-25.7zm-8.1 36.1c-5.8 0-10.5-4.7-10.5-10.5s4.7-10.5 10.5-10.5 10.5 4.7 10.5 10.5c-.4 5.7-4.9 10.2-10.5 10.5z"/></svg>