<svg xmlns="http://www.w3.org/2000/svg" viewBox="0 0 512 512"><g fill="#70A9D4"><path d="M256 72.2C154.5 72.2 72.2 154.5 72.2 256S154.5 439.8 256 439.8 439.8 357.5 439.8 256 357.5 72.2 256 72.2zm85.6 223.6c-8.6 8.6-22.4 8.6-31 0l-54.5-55.1-54.5 55.1c-8.6 8.6-22.4 8.6-31 0-8.5-8.7-8.6-22.7 0-31.3l70-70.7c8.5-8.6 22.4-8.6 31 0l70 70.7c8.6 8.6 8.6 22.6 0 31.3z"/><path d="M256 0C114.6 0 0 114.6 0 256s114.6 256 256 256 256-114.6 256-256S397.4 0 256 0zm0 471c-118.7 0-215-96.3-215-215S137.3 41 256 41s215 96.3 215 215-96.3 215-215 215z"/></g></svg>