<svg xmlns="http://www.w3.org/2000/svg" viewBox="0 0 321 55"><linearGradient id="a" gradientUnits="userSpaceOnUse" x1=".884" y1="27.77" x2="320.706" y2="27.77"><stop offset="0" stop-color="#009cff"/><stop offset=".25" stop-color="#78aedb"/><stop offset=".77" stop-color="#78aedb"/><stop offset="1" stop-color="#147ce3"/></linearGradient><path fill="url(#a)" d="M.9 11.1h10.5v33.4H23V11.1h10.4V1.6H.9v9.5zM60.3.9c-6.8 0-12 1.9-15.5 5.6-3.6 3.8-5.3 9.2-5.3 16.3 0 7.2 1.8 12.7 5.4 16.5 3.6 3.8 8.7 5.7 15.5 5.7 6.8 0 12-1.9 15.5-5.6C79.3 35.6 81 30.2 81 23c0-7.2-1.8-12.7-5.3-16.4C72.3 2.8 67.1.9 60.3.9zm6.4 31.5c-1.4 2-3.6 3-6.5 3-5.8 0-8.6-4.1-8.6-12.4 0-8.4 2.9-12.5 8.7-12.5 2.9 0 5 1 6.4 3.1 1.4 2 2.2 5.2 2.2 9.5 0 4.1-.7 7.2-2.2 9.3zm50.6-27.3c-2.7-2.4-6.8-3.5-12.2-3.5H90.3v42.8h11.6V30.2h3.3c5.2 0 9.2-1.3 12-3.9 2.8-2.6 4.2-6.3 4.2-11.1 0-4.3-1.4-7.7-4.1-10.1zm-9.2 14.2c-1 1-2.4 1.5-4.1 1.5h-2.1V11h3c3.2 0 4.8 1.4 4.8 4.3-.1 1.7-.6 3-1.6 4zm60.2-1.2c-2-1.1-4.2-1.7-6.7-1.7h-1.8c-.7 0-1.7.2-3.3.5l.5-5.7h14.6V1.6h-24.4l-1.6 22.6 4.2 2.1c2.1-.7 4.1-1 5.9-1 2.4 0 4.2.5 5.3 1.4 1.2.9 1.8 2.2 1.8 3.8 0 1.8-.6 3.1-1.7 4-1.2.9-2.8 1.4-5 1.4-1.5 0-3.4-.3-5.5-.8s-4.1-1.2-5.8-1.9v9.5C148 44.2 152 45 157 45c5.8 0 10.2-1.3 13.1-3.8 2.9-2.6 4.3-6.2 4.3-11 0-2.7-.6-5.1-1.7-7.2-.9-2.2-2.5-3.8-4.4-4.9zm32.2 26.3h11.4V28.3h12.8V19h-12.8v-8.2h13.9V1.6h-25.3v42.8zm43.2-43l-14 43h12.7l2.2-8h13.9l2.1 8h12.7l-14.2-43h-15.4zm3.3 25.5c1.8-6.7 2.9-11.2 3.4-13.5.5-2.3.9-3.9 1-4.9.2 1.1.6 2.9 1.2 5.3.6 2.5 1.1 4.5 1.6 6.1l1.8 7h-9zm63.2 15.7c6.2-3.4 9.3-9.9 9.3-19.6 0-7.2-1.8-12.7-5.3-16.4-3.5-3.7-8.7-5.6-15.5-5.6-6.8 0-12 1.9-15.5 5.6-3.6 3.8-5.3 9.2-5.3 16.3 0 7.2 1.8 12.7 5.4 16.5 3.6 3.8 8.7 5.7 15.5 5.7l7.6 9.5h14.4l-10.6-12zm-5-10.2c-1.4 2-3.6 3-6.5 3-5.8 0-8.6-4.1-8.6-12.4 0-8.4 2.9-12.5 8.7-12.5 2.9 0 5 1 6.4 3.1 1.4 2 2.2 5.2 2.2 9.5-.1 4.1-.8 7.2-2.2 9.3z"/></svg>